<?xml version="1.0" standalone="no"?>
<!DOCTYPE svg PUBLIC "-//W3C//DTD SVG 20010904//EN"
 "http://www.w3.org/TR/2001/REC-SVG-20010904/DTD/svg10.dtd">
<svg version="1.0" xmlns="http://www.w3.org/2000/svg"
 width="700.000000pt" height="700.000000pt" viewBox="0 0 700.000000 700.000000"
 preserveAspectRatio="xMidYMid meet">
<metadata>
Created by potrace 1.14, written by Peter Selinger 2001-2017
</metadata>
<g transform="translate(0.000000,700.000000) scale(0.100000,-0.100000)"
fill="#000000" stroke="none">
<path d="M3788 6305 c-1 -2 -43 -6 -93 -10 -49 -4 -101 -8 -115 -11 -14 -2
-68 -6 -120 -9 -52 -3 -106 -8 -120 -10 -14 -2 -61 -7 -105 -10 -44 -3 -91 -8
-105 -10 -14 -3 -65 -7 -115 -11 -49 -3 -97 -8 -105 -9 -9 -2 -56 -6 -105 -10
-50 -4 -106 -8 -125 -10 -19 -2 -69 -6 -110 -10 -41 -3 -88 -8 -105 -10 -16
-2 -66 -7 -110 -10 -44 -4 -96 -8 -115 -10 -19 -2 -69 -6 -110 -10 -41 -3 -91
-8 -110 -10 -19 -3 -75 -7 -125 -11 -49 -3 -97 -8 -106 -9 -9 -2 -65 -6 -125
-10 -155 -10 -234 -29 -279 -68 l-38 -33 54 -59 c33 -36 222 -184 491 -385
l437 -326 -24 -53 c-63 -134 -122 -408 -106 -482 14 -63 34 -106 75 -166 20
-29 36 -55 36 -59 0 -6 -419 -683 -485 -784 -13 -19 -98 -156 -190 -305 -92
-148 -187 -300 -211 -337 -24 -37 -44 -70 -44 -72 0 -3 -19 -33 -41 -67 -85
-128 -99 -238 -42 -346 27 -54 222 -357 264 -413 11 -14 24 -34 29 -45 5 -11
45 -73 87 -137 43 -65 148 -225 233 -355 363 -558 418 -640 459 -675 52 -44
147 -77 215 -73 28 2 121 24 206 49 128 38 837 245 1420 416 133 39 401 117
1036 304 176 51 341 104 365 116 95 49 151 142 155 260 3 81 -1 91 -148 400
-25 52 -67 140 -93 195 -26 55 -51 108 -56 118 -9 15 -6 17 15 13 14 -3 40 -9
58 -15 59 -18 167 -41 196 -41 41 0 93 38 120 87 18 33 24 62 27 130 2 48 7
156 11 239 10 209 -13 296 -98 378 l-41 39 26 91 c14 50 76 269 138 486 61
217 112 396 114 398 1 1 31 5 66 8 121 10 171 24 201 56 33 36 34 41 9 82 -27
43 -34 49 -375 304 -166 124 -338 252 -383 286 -45 33 -91 68 -103 76 -13 8
-28 20 -34 25 -6 6 -99 76 -206 156 -107 80 -330 247 -495 370 -165 124 -321
239 -347 257 -142 97 -313 149 -494 150 -45 0 -84 -1 -86 -3z m-1228 -1234
c19 -14 45 -35 57 -46 l22 -20 -94 -150 c-52 -82 -99 -151 -104 -153 -22 -7
-30 60 -15 128 3 14 7 34 9 46 3 12 18 63 35 115 16 52 30 100 30 107 0 15 8
11 60 -27z m3218 -623 c-116 -416 -231 -815 -237 -821 -5 -5 -24 -11 -42 -13
-59 -9 -115 -40 -165 -91 -52 -51 -54 -54 -108 -148 l-35 -59 -44 94 c-25 52
-75 158 -112 235 -37 77 -80 168 -96 203 l-29 63 29 37 c26 32 69 114 78 147
1 6 14 55 28 110 66 257 65 255 99 256 17 0 39 2 48 4 9 2 54 6 100 9 46 4 97
9 113 11 17 2 62 7 100 10 39 3 106 8 150 11 44 3 81 7 82 8 1 1 15 3 32 4
l30 2 -21 -72z m-2262 -47 c43 -16 95 -32 114 -35 19 -3 46 -8 60 -11 58 -12
248 -7 390 10 14 2 63 6 110 10 47 3 98 8 113 11 30 5 17 28 189 -336 l27 -55
-22 -6 c-23 -6 -335 -3 -402 4 -180 20 -174 19 -381 62 -102 22 -200 48 -354
94 -31 9 -31 17 4 176 14 66 26 123 26 128 0 4 11 1 23 -8 13 -8 59 -28 103
-44z m1360 23 c-6 -16 -27 -93 -31 -115 -2 -9 -13 -49 -25 -90 l-22 -74 -64
134 c-36 74 -63 135 -61 137 2 2 37 6 78 10 41 3 75 7 76 8 1 1 14 2 28 2 16
0 24 -5 21 -12z m-1426 -528 c124 -36 369 -89 465 -101 28 -3 61 -8 75 -10
122 -21 512 -26 586 -8 l41 10 46 -96 c25 -53 78 -163 118 -246 39 -82 88
-186 109 -230 21 -44 61 -129 90 -190 79 -167 148 -311 190 -400 21 -44 64
-134 95 -200 149 -313 150 -314 131 -371 -9 -30 -56 -61 -117 -78 -51 -13
-120 -34 -584 -171 -104 -30 -198 -57 -208 -60 -10 -2 -93 -26 -185 -54 -92
-27 -252 -74 -357 -105 -104 -30 -289 -84 -410 -120 -121 -35 -276 -81 -345
-101 -380 -112 -364 -109 -410 -67 -35 30 -42 64 -28 126 6 23 12 52 14 66 3
13 12 56 20 95 9 38 18 81 20 95 3 14 11 53 19 88 8 34 17 77 20 95 3 17 12
60 20 95 8 34 17 77 20 95 3 17 12 60 20 93 8 34 16 73 19 85 10 56 49 241 66
319 19 85 24 111 35 163 17 88 24 120 51 245 14 64 27 126 30 137 2 11 6 31 9
45 3 14 7 34 9 45 3 16 40 190 61 290 3 11 26 120 52 243 44 210 48 223 67
219 12 -3 77 -21 146 -41z m2183 -530 c15 -2 31 -7 36 -10 9 -6 6 -354 -4
-401 -2 -11 -4 -23 -4 -26 -1 -3 -74 15 -163 41 -142 41 -165 50 -176 73 -14
28 -8 40 118 259 l55 95 56 -13 c31 -7 68 -15 82 -18z"/>
</g>
</svg>
